<?xml version="1.0" standalone="no"?>
<!DOCTYPE svg PUBLIC "-//W3C//DTD SVG 20010904//EN"
 "http://www.w3.org/TR/2001/REC-SVG-20010904/DTD/svg10.dtd">
<svg version="1.0" xmlns="http://www.w3.org/2000/svg"
 width="512.000000pt" height="512.000000pt" viewBox="0 0 512.000000 512.000000"
 preserveAspectRatio="xMidYMid meet">
<metadata>
Created by potrace 1.14, written by Peter Selinger 2001-2017
</metadata>
<g transform="translate(0.000000,512.000000) scale(0.100000,-0.100000)"
fill="#000000" stroke="none">
<path d="M295 4432 c-108 -9 -214 -82 -262 -180 l-28 -57 0 -1500 0 -1500 328
0 c180 0 327 -2 328 -5 1 -3 2 -22 4 -42 5 -57 34 -146 61 -189 13 -21 24 -42
24 -47 0 -19 120 -127 177 -158 91 -52 149 -66 256 -66 123 1 265 60 343 143
21 23 47 50 56 60 10 10 31 45 47 77 25 50 36 88 57 207 3 20 11 20 984 20
849 -1 982 -3 991 -15 5 -8 7 -20 4 -27 -7 -21 34 -151 65 -207 72 -127 208
-224 352 -252 56 -11 170 -5 228 12 199 57 356 245 373 449 l3 40 217 0 217
-1 0 182 0 182 -40 -2 c-31 -2 -40 1 -40 13 -1 9 -1 203 0 431 l0 415 -39 135
c-177 613 -185 638 -231 705 -65 94 -185 177 -299 205 -43 11 -1141 17 -1158
7 -5 -3 -7 140 -6 316 1 324 -5 415 -34 472 -40 77 -113 138 -198 166 -32 10
-303 13 -1395 14 -745 0 -1368 -1 -1385 -3z"/>
</g>
</svg>
